<?xml version="1.0" encoding="UTF-8"?>
<svg xmlns="http://www.w3.org/2000/svg" width="540" height="540" viewBox="0 0 540 540">
  <style>
    .title { font: bold 16px sans-serif; }
    .axis-label { font: 12px sans-serif; }
    .tick-label { font: 10px sans-serif; }
    .grid { stroke: #e0e0e0; stroke-width: 0.5; }
    .axis { stroke: #333; stroke-width: 1; }
    .point { fill: #2563eb; }
  </style>

  <!-- Background -->
  <rect width="540" height="540" fill="white"/>

  <!-- Title -->
  <text x="270" y="25" text-anchor="middle" class="title">MiniMD5 (custom 8-bit) Hash Function (8-bit)</text>

  <!-- Grid lines -->
  <g class="grid">
    <line x1="60" y1="60" x2="60" y2="480"/>
    <line x1="112.5" y1="60" x2="112.5" y2="480"/>
    <line x1="165" y1="60" x2="165" y2="480"/>
    <line x1="217.5" y1="60" x2="217.5" y2="480"/>
    <line x1="270" y1="60" x2="270" y2="480"/>
    <line x1="322.5" y1="60" x2="322.5" y2="480"/>
    <line x1="375" y1="60" x2="375" y2="480"/>
    <line x1="427.5" y1="60" x2="427.5" y2="480"/>
    <line x1="480" y1="60" x2="480" y2="480"/>
    <line x1="60" y1="480" x2="480" y2="480"/>
    <line x1="60" y1="427.5" x2="480" y2="427.5"/>
    <line x1="60" y1="375" x2="480" y2="375"/>
    <line x1="60" y1="322.5" x2="480" y2="322.5"/>
    <line x1="60" y1="270" x2="480" y2="270"/>
    <line x1="60" y1="217.5" x2="480" y2="217.5"/>
    <line x1="60" y1="165" x2="480" y2="165"/>
    <line x1="60" y1="112.5" x2="480" y2="112.5"/>
    <line x1="60" y1="60" x2="480" y2="60"/>
  </g>

  <!-- Axes -->
  <g class="axis">
    <line x1="60" y1="480" x2="480" y2="480"/>
    <line x1="60" y1="60" x2="60" y2="480"/>
  </g>

  <!-- Axis labels -->
  <text x="270" y="530" text-anchor="middle" class="axis-label">Input (0-255)</text>
  <text x="15" y="270" text-anchor="middle" class="axis-label" transform="rotate(-90, 15, 270)">Output Hash (0-255)</text>

  <!-- Tick labels -->
  <g class="tick-label">
    <text x="60" y="495" text-anchor="middle">0</text>
    <text x="165" y="495" text-anchor="middle">64</text>
    <text x="270" y="495" text-anchor="middle">128</text>
    <text x="375" y="495" text-anchor="middle">192</text>
    <text x="480" y="495" text-anchor="middle">256</text>
    <text x="52" y="484" text-anchor="end">0</text>
    <text x="52" y="379" text-anchor="end">64</text>
    <text x="52" y="274" text-anchor="end">128</text>
    <text x="52" y="169" text-anchor="end">192</text>
    <text x="52" y="64" text-anchor="end">256</text>
  </g>

  <!-- Data points -->
  <g class="point">
    <circle cx="60.00" cy="235.55" r="2"/>
    <circle cx="61.64" cy="329.06" r="2"/>
    <circle cx="63.28" cy="461.95" r="2"/>
    <circle cx="64.92" cy="276.56" r="2"/>
    <circle cx="66.56" cy="91.17" r="2"/>
    <circle cx="68.20" cy="224.06" r="2"/>
    <circle cx="69.84" cy="414.38" r="2"/>
    <circle cx="71.48" cy="445.55" r="2"/>
    <circle cx="73.13" cy="465.23" r="2"/>
    <circle cx="74.77" cy="337.27" r="2"/>
    <circle cx="76.41" cy="453.75" r="2"/>
    <circle cx="78.05" cy="176.48" r="2"/>
    <circle cx="79.69" cy="153.52" r="2"/>
    <circle cx="81.33" cy="112.50" r="2"/>
    <circle cx="82.97" cy="356.95" r="2"/>
    <circle cx="84.61" cy="133.83" r="2"/>
    <circle cx="86.25" cy="396.33" r="2"/>
    <circle cx="87.89" cy="94.45" r="2"/>
    <circle cx="89.53" cy="242.11" r="2"/>
    <circle cx="91.17" cy="438.98" r="2"/>
    <circle cx="92.81" cy="97.73" r="2"/>
    <circle cx="94.45" cy="434.06" r="2"/>
    <circle cx="96.09" cy="314.30" r="2"/>
    <circle cx="97.73" cy="76.41" r="2"/>
    <circle cx="99.38" cy="225.70" r="2"/>
    <circle cx="101.02" cy="212.58" r="2"/>
    <circle cx="102.66" cy="178.13" r="2"/>
    <circle cx="104.30" cy="412.73" r="2"/>
    <circle cx="105.94" cy="330.70" r="2"/>
    <circle cx="107.58" cy="363.52" r="2"/>
    <circle cx="109.22" cy="197.81" r="2"/>
    <circle cx="110.86" cy="448.83" r="2"/>
    <circle cx="112.50" cy="86.25" r="2"/>
    <circle cx="114.14" cy="401.25" r="2"/>
    <circle cx="115.78" cy="97.73" r="2"/>
    <circle cx="117.42" cy="394.69" r="2"/>
    <circle cx="119.06" cy="219.14" r="2"/>
    <circle cx="120.70" cy="92.81" r="2"/>
    <circle cx="122.34" cy="429.14" r="2"/>
    <circle cx="123.98" cy="281.48" r="2"/>
    <circle cx="125.63" cy="422.58" r="2"/>
    <circle cx="127.27" cy="258.52" r="2"/>
    <circle cx="128.91" cy="376.64" r="2"/>
    <circle cx="130.55" cy="358.59" r="2"/>
    <circle cx="132.19" cy="345.47" r="2"/>
    <circle cx="133.83" cy="284.77" r="2"/>
    <circle cx="135.47" cy="347.11" r="2"/>
    <circle cx="137.11" cy="133.83" r="2"/>
    <circle cx="138.75" cy="202.73" r="2"/>
    <circle cx="140.39" cy="353.67" r="2"/>
    <circle cx="142.03" cy="206.02" r="2"/>
    <circle cx="143.67" cy="361.88" r="2"/>
    <circle cx="145.31" cy="324.14" r="2"/>
    <circle cx="146.95" cy="475.08" r="2"/>
    <circle cx="148.59" cy="292.97" r="2"/>
    <circle cx="150.23" cy="64.92" r="2"/>
    <circle cx="151.88" cy="386.48" r="2"/>
    <circle cx="153.52" cy="130.55" r="2"/>
    <circle cx="155.16" cy="465.23" r="2"/>
    <circle cx="156.80" cy="102.66" r="2"/>
    <circle cx="158.44" cy="475.08" r="2"/>
    <circle cx="160.08" cy="242.11" r="2"/>
    <circle cx="161.72" cy="248.67" r="2"/>
    <circle cx="163.36" cy="104.30" r="2"/>
    <circle cx="165.00" cy="471.80" r="2"/>
    <circle cx="166.64" cy="299.53" r="2"/>
    <circle cx="168.28" cy="119.06" r="2"/>
    <circle cx="169.92" cy="117.42" r="2"/>
    <circle cx="171.56" cy="153.52" r="2"/>
    <circle cx="173.20" cy="235.55" r="2"/>
    <circle cx="174.84" cy="348.75" r="2"/>
    <circle cx="176.48" cy="156.80" r="2"/>
    <circle cx="178.13" cy="402.89" r="2"/>
    <circle cx="179.77" cy="219.14" r="2"/>
    <circle cx="181.41" cy="128.91" r="2"/>
    <circle cx="183.05" cy="286.41" r="2"/>
    <circle cx="184.69" cy="166.64" r="2"/>
    <circle cx="186.33" cy="347.11" r="2"/>
    <circle cx="187.97" cy="130.55" r="2"/>
    <circle cx="189.61" cy="74.77" r="2"/>
    <circle cx="191.25" cy="286.41" r="2"/>
    <circle cx="192.89" cy="299.53" r="2"/>
    <circle cx="194.53" cy="209.30" r="2"/>
    <circle cx="196.17" cy="184.69" r="2"/>
    <circle cx="197.81" cy="127.27" r="2"/>
    <circle cx="199.45" cy="279.84" r="2"/>
    <circle cx="201.09" cy="435.70" r="2"/>
    <circle cx="202.73" cy="468.52" r="2"/>
    <circle cx="204.38" cy="219.14" r="2"/>
    <circle cx="206.02" cy="153.52" r="2"/>
    <circle cx="207.66" cy="416.02" r="2"/>
    <circle cx="209.30" cy="176.48" r="2"/>
    <circle cx="210.94" cy="158.44" r="2"/>
    <circle cx="212.58" cy="68.20" r="2"/>
    <circle cx="214.22" cy="68.20" r="2"/>
    <circle cx="215.86" cy="296.25" r="2"/>
    <circle cx="217.50" cy="309.38" r="2"/>
    <circle cx="219.14" cy="243.75" r="2"/>
    <circle cx="220.78" cy="61.64" r="2"/>
    <circle cx="222.42" cy="311.02" r="2"/>
    <circle cx="224.06" cy="237.19" r="2"/>
    <circle cx="225.70" cy="368.44" r="2"/>
    <circle cx="227.34" cy="468.52" r="2"/>
    <circle cx="228.98" cy="445.55" r="2"/>
    <circle cx="230.63" cy="274.92" r="2"/>
    <circle cx="232.27" cy="393.05" r="2"/>
    <circle cx="233.91" cy="283.13" r="2"/>
    <circle cx="235.55" cy="248.67" r="2"/>
    <circle cx="237.19" cy="171.56" r="2"/>
    <circle cx="238.83" cy="101.02" r="2"/>
    <circle cx="240.47" cy="294.61" r="2"/>
    <circle cx="242.11" cy="183.05" r="2"/>
    <circle cx="243.75" cy="388.13" r="2"/>
    <circle cx="245.39" cy="68.20" r="2"/>
    <circle cx="247.03" cy="401.25" r="2"/>
    <circle cx="248.67" cy="240.47" r="2"/>
    <circle cx="250.31" cy="242.11" r="2"/>
    <circle cx="251.95" cy="370.08" r="2"/>
    <circle cx="253.59" cy="378.28" r="2"/>
    <circle cx="255.23" cy="320.86" r="2"/>
    <circle cx="256.88" cy="163.36" r="2"/>
    <circle cx="258.52" cy="478.36" r="2"/>
    <circle cx="260.16" cy="314.30" r="2"/>
    <circle cx="261.80" cy="107.58" r="2"/>
    <circle cx="263.44" cy="402.89" r="2"/>
    <circle cx="265.08" cy="384.84" r="2"/>
    <circle cx="266.72" cy="265.08" r="2"/>
    <circle cx="268.36" cy="422.58" r="2"/>
    <circle cx="270.00" cy="71.48" r="2"/>
    <circle cx="271.64" cy="266.72" r="2"/>
    <circle cx="273.28" cy="447.19" r="2"/>
    <circle cx="274.92" cy="237.19" r="2"/>
    <circle cx="276.56" cy="383.20" r="2"/>
    <circle cx="278.20" cy="151.88" r="2"/>
    <circle cx="279.84" cy="460.31" r="2"/>
    <circle cx="281.48" cy="373.36" r="2"/>
    <circle cx="283.13" cy="340.55" r="2"/>
    <circle cx="284.77" cy="142.03" r="2"/>
    <circle cx="286.41" cy="327.42" r="2"/>
    <circle cx="288.05" cy="291.33" r="2"/>
    <circle cx="289.69" cy="419.30" r="2"/>
    <circle cx="291.33" cy="340.55" r="2"/>
    <circle cx="292.97" cy="333.98" r="2"/>
    <circle cx="294.61" cy="266.72" r="2"/>
    <circle cx="296.25" cy="443.91" r="2"/>
    <circle cx="297.89" cy="256.88" r="2"/>
    <circle cx="299.53" cy="235.55" r="2"/>
    <circle cx="301.17" cy="163.36" r="2"/>
    <circle cx="302.81" cy="330.70" r="2"/>
    <circle cx="304.45" cy="153.52" r="2"/>
    <circle cx="306.09" cy="453.75" r="2"/>
    <circle cx="307.73" cy="427.50" r="2"/>
    <circle cx="309.38" cy="60.00" r="2"/>
    <circle cx="311.02" cy="279.84" r="2"/>
    <circle cx="312.66" cy="145.31" r="2"/>
    <circle cx="314.30" cy="247.03" r="2"/>
    <circle cx="315.94" cy="168.28" r="2"/>
    <circle cx="317.58" cy="378.28" r="2"/>
    <circle cx="319.22" cy="68.20" r="2"/>
    <circle cx="320.86" cy="315.94" r="2"/>
    <circle cx="322.50" cy="284.77" r="2"/>
    <circle cx="324.14" cy="270.00" r="2"/>
    <circle cx="325.78" cy="110.86" r="2"/>
    <circle cx="327.42" cy="186.33" r="2"/>
    <circle cx="329.06" cy="181.41" r="2"/>
    <circle cx="330.70" cy="142.03" r="2"/>
    <circle cx="332.34" cy="261.80" r="2"/>
    <circle cx="333.98" cy="122.34" r="2"/>
    <circle cx="335.63" cy="365.16" r="2"/>
    <circle cx="337.27" cy="302.81" r="2"/>
    <circle cx="338.91" cy="210.94" r="2"/>
    <circle cx="340.55" cy="268.36" r="2"/>
    <circle cx="342.19" cy="450.47" r="2"/>
    <circle cx="343.83" cy="261.80" r="2"/>
    <circle cx="345.47" cy="138.75" r="2"/>
    <circle cx="347.11" cy="371.72" r="2"/>
    <circle cx="348.75" cy="153.52" r="2"/>
    <circle cx="350.39" cy="79.69" r="2"/>
    <circle cx="352.03" cy="355.31" r="2"/>
    <circle cx="353.67" cy="247.03" r="2"/>
    <circle cx="355.31" cy="260.16" r="2"/>
    <circle cx="356.95" cy="370.08" r="2"/>
    <circle cx="358.59" cy="107.58" r="2"/>
    <circle cx="360.23" cy="128.91" r="2"/>
    <circle cx="361.88" cy="378.28" r="2"/>
    <circle cx="363.52" cy="181.41" r="2"/>
    <circle cx="365.16" cy="187.97" r="2"/>
    <circle cx="366.80" cy="145.31" r="2"/>
    <circle cx="368.44" cy="438.98" r="2"/>
    <circle cx="370.08" cy="273.28" r="2"/>
    <circle cx="371.72" cy="311.02" r="2"/>
    <circle cx="373.36" cy="443.91" r="2"/>
    <circle cx="375.00" cy="101.02" r="2"/>
    <circle cx="376.64" cy="256.88" r="2"/>
    <circle cx="378.28" cy="137.11" r="2"/>
    <circle cx="379.92" cy="324.14" r="2"/>
    <circle cx="381.56" cy="206.02" r="2"/>
    <circle cx="383.20" cy="151.88" r="2"/>
    <circle cx="384.84" cy="284.77" r="2"/>
    <circle cx="386.48" cy="142.03" r="2"/>
    <circle cx="388.13" cy="296.25" r="2"/>
    <circle cx="389.77" cy="457.03" r="2"/>
    <circle cx="391.41" cy="376.64" r="2"/>
    <circle cx="393.05" cy="243.75" r="2"/>
    <circle cx="394.69" cy="260.16" r="2"/>
    <circle cx="396.33" cy="222.42" r="2"/>
    <circle cx="397.97" cy="166.64" r="2"/>
    <circle cx="399.61" cy="142.03" r="2"/>
    <circle cx="401.25" cy="179.77" r="2"/>
    <circle cx="402.89" cy="355.31" r="2"/>
    <circle cx="404.53" cy="222.42" r="2"/>
    <circle cx="406.17" cy="274.92" r="2"/>
    <circle cx="407.81" cy="265.08" r="2"/>
    <circle cx="409.45" cy="397.97" r="2"/>
    <circle cx="411.09" cy="476.72" r="2"/>
    <circle cx="412.73" cy="128.91" r="2"/>
    <circle cx="414.38" cy="84.61" r="2"/>
    <circle cx="416.02" cy="105.94" r="2"/>
    <circle cx="417.66" cy="402.89" r="2"/>
    <circle cx="419.30" cy="455.39" r="2"/>
    <circle cx="420.94" cy="237.19" r="2"/>
    <circle cx="422.58" cy="270.00" r="2"/>
    <circle cx="424.22" cy="448.83" r="2"/>
    <circle cx="425.86" cy="102.66" r="2"/>
    <circle cx="427.50" cy="82.97" r="2"/>
    <circle cx="429.14" cy="345.47" r="2"/>
    <circle cx="430.78" cy="173.20" r="2"/>
    <circle cx="432.42" cy="110.86" r="2"/>
    <circle cx="434.06" cy="401.25" r="2"/>
    <circle cx="435.70" cy="261.80" r="2"/>
    <circle cx="437.34" cy="94.45" r="2"/>
    <circle cx="438.98" cy="270.00" r="2"/>
    <circle cx="440.63" cy="404.53" r="2"/>
    <circle cx="442.27" cy="179.77" r="2"/>
    <circle cx="443.91" cy="384.84" r="2"/>
    <circle cx="445.55" cy="343.83" r="2"/>
    <circle cx="447.19" cy="384.84" r="2"/>
    <circle cx="448.83" cy="181.41" r="2"/>
    <circle cx="450.47" cy="230.63" r="2"/>
    <circle cx="452.11" cy="82.97" r="2"/>
    <circle cx="453.75" cy="120.70" r="2"/>
    <circle cx="455.39" cy="314.30" r="2"/>
    <circle cx="457.03" cy="309.38" r="2"/>
    <circle cx="458.67" cy="183.05" r="2"/>
    <circle cx="460.31" cy="396.33" r="2"/>
    <circle cx="461.95" cy="281.48" r="2"/>
    <circle cx="463.59" cy="104.30" r="2"/>
    <circle cx="465.23" cy="365.16" r="2"/>
    <circle cx="466.88" cy="306.09" r="2"/>
    <circle cx="468.52" cy="312.66" r="2"/>
    <circle cx="470.16" cy="376.64" r="2"/>
    <circle cx="471.80" cy="337.27" r="2"/>
    <circle cx="473.44" cy="204.38" r="2"/>
    <circle cx="475.08" cy="404.53" r="2"/>
    <circle cx="476.72" cy="360.23" r="2"/>
    <circle cx="478.36" cy="76.41" r="2"/>
  </g>
</svg>